Genre:Drama | Mystery | Thriller
Language:English  http://www.imdb.com/title/tt1175709/
Source:720P Bluray X264 Hive-CM8


Format : Matroska
File size : 1.90 GiB
Duration : 1h 40mn
Overall bit rate : 2 701 Kbps


Video
Format settings, CABAC : Yes
Format settings, ReFrames : 4 frames
Codec ID : V_MPEG4/ISO/AVC
Duration : 1h 40mn
Bit rate : 2 300 Kbps
Width : 1 280 pixels
Height : 720 pixels
Display aspect ratio : 16:9
Frame rate mode : Variable
Frame rate : 23.976 fps
Color space : YUV
Chroma subsampling : 4:2:0
Bit depth : 8 bits
Scan type : Progressive
Bits/(Pixel*Frame) : 0.104
Stream size : 1.59 GiB (84%)
Writing library : x264

Audio
ID : 2
Format : AC-3
Format/Info : Audio Coding 3
Mode extension : CM (complete main)
Codec ID : A_AC3
Duration : 1h 40mn
Bit rate mode : Constant
Bit rate : 384 Kbps
Channel(s) : 6 channels
Channel positions : Front: L C R, Side: L R, LFE
Sampling rate : 48.0 KHz
Bit depth : 16 bits
Video delay : -1mn 5s
Stream size : 277 MiB (14%)
Language : English


Plot:
All Good Things is a love story and murder mystery based on the most notorious unsolved murder case in New York
 
http://rapidhdd.com/images/543629vlcsnap-2010-12-13-18h13m27s159.png 
http://www.rapidhdd.com/images/311799vlcsnap-2010-12-13-18h13m38s8.png 
http://www.rapidhdd.com/images/214373vlcsnap-2010-12-13-18h14m15s124.png 
http://www.rapidhdd.com/images/993974vlcsnap-2010-12-13-18h14m37s85.png